# xmcd
# Track frame offsets:
# 182
# 14590
# 27577
# 43622
# 55370
# 74697
# 87627
# 101685
# 122130
# 135017
#
# Disc length: 2004 seconds
# Revision: 0
# Processed by: cddbd v1.4PL0 Copyright (c) Steve Scherf et al.
# Submitted via: VisiTrax 2.9.5.181 - For more info visit www.synapsa.com
#
DISCID=8f07d20a
DTITLE=Country Dance Club USA - Dance Hall Delights
DYEAR=1900
DGENRE=
TTITLE0=The Country Dance Kings - Rock My World (Little Country Girl)
TTITLE1=The Country Dance Kings - If Bubba Can Dance (I Can Too)
TTITLE2=The Country Dance Kings - American Honky-Tonk Bar Assciation
TTITLE3=The Country Dance Kings - My Baby Loves Me
TTITLE4=The Country Dance Kings - I Swear
TTITLE5=The Country Dance Kings - Live Until I Die
TTITLE6=The Country Dance Kings - That's My Story
TTITLE7=The Country Dance Kings - John Deere Green
TTITLE8=The Country Dance Kings - State Of Mind
TTITLE9=The Country Dance Kings - Reckless
EXTD=
EXTT0=
EXTT1=
EXTT2=
EXTT3=
EXTT4=
EXTT5=
EXTT6=
EXTT7=
EXTT8=
EXTT9=
PLAYORDER=
